HIERARCHY
ROOT hip
{
	OFFSET 0.000000 0.000000 0.000000 
	CHANNELS 6 Xposition Yposition Zposition Xrotation Zrotation Yrotation
	JOINT abdomen
	{
		OFFSET 0.000000 3.402643 0.000000 
		CHANNELS 3 Xrotation Zrotation Yrotation
		JOINT chest
		{
			OFFSET 0.000000 8.438565 -0.680529 
			CHANNELS 3 Xrotation Zrotation Yrotation
			JOINT neck
			{
				OFFSET 0.000000 10.207942 -0.272212 
				CHANNELS 3 Xrotation Zrotation Yrotation
				JOINT head
				{
					OFFSET 0.000000 3.130431 0.000000 
					CHANNELS 3 Xrotation Zrotation Yrotation
					End Site
					{
						OFFSET 0.000000 3.130435 0.000000 
					}
				}
			}
			JOINT lCollar
			{
				OFFSET 3.470700 6.669187 -0.816635 
				CHANNELS 3 Yrotation Zrotation Xrotation
				JOINT lShldr
				{
					OFFSET 3.198488 0.000000 0.000000 
					CHANNELS 3 Zrotation Yrotation Xrotation
					JOINT lForeArm
					{
						OFFSET 10.139888 0.000000 0.000000 
						CHANNELS 3 Yrotation Zrotation Xrotation
						JOINT lHand
						{
							OFFSET 8.370511 0.000000 0.000000 
							CHANNELS 3 Zrotation Yrotation Xrotation
							End Site
							{
								OFFSET 4.083176 0.000000 0.000000 
							}
						}
					}
				}
			}
			JOINT rCollar
			{
				OFFSET -3.470700 6.669187 -0.816635 
				CHANNELS 3 Yrotation Zrotation Xrotation
				JOINT rShldr
				{
					OFFSET -3.198488 0.000000 0.000000 
					CHANNELS 3 Zrotation Yrotation Xrotation
					JOINT rForeArm
					{
						OFFSET -10.139888 0.000000 0.000000 
						CHANNELS 3 Yrotation Zrotation Xrotation
						JOINT rHand
						{
							OFFSET -8.370511 0.000000 0.000000 
							CHANNELS 3 Zrotation Yrotation Xrotation
							End Site
							{
								OFFSET -4.083176 0.000000 0.000000 
							}
						}
					}
				}
			}
		}
	}
	JOINT lThigh
	{
		OFFSET 5.308129 -1.633274 1.361059 
		CHANNELS 3 Xrotation Zrotation Yrotation
		JOINT lShin
		{
			OFFSET -2.041588 -20.007561 0.000000 
			CHANNELS 3 Xrotation Zrotation Yrotation
			JOINT lFoot
			{
				OFFSET 0.000000 -19.190928 -1.224953 
				CHANNELS 3 Xrotation Yrotation Zrotation
				End Site
				{
					OFFSET 0.000000 -2.449906 4.627600 
				}
			}
		}
	}
	JOINT rThigh
	{
		OFFSET -5.308129 -1.633274 1.361059 
		CHANNELS 3 Xrotation Zrotation Yrotation
		JOINT rShin
		{
			OFFSET 2.041588 -20.007561 0.000000 
			CHANNELS 3 Xrotation Zrotation Yrotation
			JOINT rFoot
			{
				OFFSET 0.000000 -19.190928 -1.224953 
				CHANNELS 3 Xrotation Yrotation Zrotation
				End Site
				{
					OFFSET 0.000000 -2.449906 4.627600 
				}
			}
		}
	}
}
MOTION
Frames: 18
Frame Time: 0.033333
76.321686 53.193188 61.091061 2.275391 0.869141 64.004059 40.242786 -9.226138 -3.586371 -8.222656 14.052735 9.414063 51.063168 8.107644 2.471410 -45.166016 19.755859 -23.359377 2.000000 -2.000000 0.000000 -74.013672 -11.445313 22.390640 -49.346558 -2.051007 -2.008880 14.528041 51.222939 20.973906 -2.000000 2.000000 0.000000 74.375000 -3.388672 6.425205 52.998676 1.433973 -1.996222 -40.712978 -64.707245 26.344051 -52.617672 11.824113 -1.291310 72.757729 -1.842881 -4.946634 6.602808 11.163606 -11.580763 0.416562 -8.448812 -26.587982 6.120934 5.179932 0.659418 -0.948518 -3.615903 6.927456 
77.164925 53.177437 61.420509 2.275391 0.000000 63.447266 40.408188 -9.679019 -3.521480 -8.212891 14.218750 9.472657 51.063168 8.107644 2.471410 -46.455082 19.882811 -23.808596 2.000000 -2.000000 0.000000 -73.935547 -12.373046 21.621092 -49.358730 -2.399046 -2.105927 16.325485 50.050049 22.744299 -2.000000 2.000000 0.000000 74.267578 -3.056641 6.777344 52.999805 1.563555 -2.037578 -39.775452 -64.727142 25.865770 -53.686867 11.249367 -0.657489 66.273865 -2.417121 -4.886108 2.654555 9.929320 -10.873198 0.975918 -8.006467 -26.620579 5.404346 5.176276 0.463531 -1.415913 -3.159853 7.155291 
77.973328 53.185303 61.686672 2.265625 -0.878906 62.890625 40.743717 -10.322296 -3.396292 -8.027344 14.199541 9.523626 51.063168 8.107644 2.471410 -47.783199 19.833982 -24.274035 2.000000 -2.000000 0.000000 -74.189453 -12.832032 20.781250 -49.170277 -2.040120 -1.989957 16.555298 48.862137 23.323582 -2.000000 2.000000 0.000000 74.443359 -3.056641 7.343750 52.998676 1.433973 -1.996222 -38.453785 -64.849991 24.788694 -54.068462 10.731732 -0.623093 60.647121 -2.710114 -4.427374 0.064664 9.041970 -10.435821 1.327626 -7.627345 -26.602818 4.694618 5.182842 0.550620 -1.529656 -2.805975 7.367344 
78.895592 53.122288 61.893677 2.275391 -1.767578 62.314152 40.773495 -10.465959 -3.514658 -8.007812 14.355470 9.758280 51.063168 8.107644 2.471410 -48.183594 19.511717 -24.391272 2.000000 -2.000000 0.000000 -74.765625 -12.822266 19.833984 -49.170277 -2.040120 -1.989957 17.673517 48.510651 23.786095 -2.000000 2.000000 0.000000 74.335938 -3.349610 8.368570 53.004345 1.553717 -2.204386 -37.439255 -64.839172 24.096155 -54.180496 10.096146 -1.829666 55.751812 -3.373251 -4.258284 -0.327000 9.174766 -10.115588 1.460658 -7.541477 -26.262468 4.694830 5.169423 0.550316 -2.227646 -2.441634 7.302285 
79.911362 52.985981 62.063320 2.275391 -2.646484 61.923378 40.421932 -10.465959 -3.514657 -8.007812 14.355470 9.758280 51.063168 8.107644 2.471410 -48.281250 18.642578 -24.609373 2.000000 -2.000000 0.000000 -75.507813 -11.640625 18.865219 -49.005463 -2.219016 -2.038196 17.854420 49.402992 23.360046 -2.000000 2.000000 0.000000 74.628906 -3.242188 9.257174 52.998676 1.433973 -1.996222 -37.138958 -65.082405 24.249544 -53.078690 9.109932 -2.983919 50.783859 -2.906143 -3.868932 1.022111 9.174681 -10.074224 1.794249 -7.602533 -25.937164 4.876044 5.174554 0.575634 -2.462181 -2.487563 7.252869 
80.795326 52.796970 62.250549 2.109375 -3.359375 61.542397 40.636791 -10.735016 -3.744596 -8.027344 14.199541 9.699404 51.063168 8.107644 2.471410 -48.310551 18.291014 -24.453127 2.000000 -2.000000 0.000000 -75.537109 -10.263673 18.085936 -48.994492 -2.040120 -1.989957 17.336853 51.220474 21.776443 -2.000000 2.000000 0.000000 75.283203 -2.314453 10.136324 52.998676 1.433973 -1.996222 -37.128670 -65.405670 24.451666 -51.999130 8.690835 -4.785869 46.078835 -3.547796 -3.939562 2.285024 9.914475 -9.838085 2.273561 -7.409073 -25.067587 4.702093 5.196718 0.093510 -2.865428 -2.310146 7.558109 
81.508842 52.621429 62.514042 1.933594 -3.886719 61.357418 41.206440 -11.431503 -3.922080 -8.242187 13.886719 9.699610 51.063168 8.107644 2.471410 -48.310551 18.291014 -24.101564 2.000000 -2.000000 0.000000 -75.468750 -9.531250 16.365570 -48.828552 -2.128431 -1.994586 16.332895 52.394775 20.058952 -2.000000 2.000000 0.000000 76.240234 -1.904297 10.292644 52.998676 1.433973 -1.996222 -35.953129 -65.350540 23.310326 -51.277660 8.466393 -6.700687 43.290146 -3.869788 -3.693555 1.635304 10.700146 -9.121476 2.964436 -6.947989 -25.598860 4.018997 5.176578 0.494480 -2.860714 -2.122772 7.233644 
82.054802 52.417126 62.827991 1.757813 -4.394531 61.346909 41.808399 -12.237094 -4.228794 -8.281249 13.564454 9.738620 51.063168 8.107644 2.471410 -48.125004 18.281250 -23.339842 2.000000 -2.000000 0.000000 -76.660156 -8.798828 14.589844 -48.305893 -2.156611 -1.806780 13.227160 52.659771 16.292839 -2.000000 2.000000 0.000000 76.474609 -1.982422 10.273437 52.998676 1.433973 -1.996222 -34.786522 -64.924469 21.742777 -51.805176 8.271339 -6.627512 45.202202 -3.606179 -3.931210 0.966120 10.771140 -8.737678 3.687437 -6.284588 -26.112728 2.418591 4.785952 0.360227 -1.143676 -2.352716 6.652153 
82.543922 52.330269 63.061504 1.572266 -4.580078 61.356968 42.609871 -13.255259 -4.527214 -8.320313 13.242188 9.599608 51.063168 8.107644 2.471410 -47.949219 18.085934 -22.773439 2.000000 -2.000000 0.000000 -77.890625 -8.613282 12.312989 -47.772167 -2.056205 -1.929997 8.657117 52.442799 11.117433 -2.000000 2.000000 0.000000 76.826172 -3.193359 9.696723 53.186066 1.614006 -2.063980 -33.732483 -64.249123 20.395498 -51.608334 8.612687 -6.434541 46.077858 -3.540737 -3.975422 0.699041 10.126953 -8.500523 6.132691 -5.039254 -27.175426 -1.284707 4.786433 0.035901 -0.117856 -2.452574 4.887998 
83.110603 52.556427 63.337601 1.230469 -4.921875 61.376114 43.424835 -14.028111 -4.865728 -8.349609 12.910157 9.660384 51.063168 8.107644 2.471410 -47.431644 17.675779 -22.119143 2.000000 -2.000000 0.000000 -78.593750 -9.091798 11.484376 -47.254951 -2.252892 -1.947829 6.062019 51.994457 8.082116 -2.000000 2.000000 0.000000 77.226555 -4.111328 9.404297 53.361862 1.604257 -2.064547 -31.593456 -63.410774 17.701746 -50.460686 8.934414 -5.786150 45.360096 -3.569985 -3.958519 0.970733 9.791593 -7.731780 8.127621 -4.314715 -27.691320 -3.379593 5.278149 -0.125820 4.582605 -2.624834 3.661091 
83.858940 52.683197 63.632801 1.054688 -5.097656 61.561634 44.222645 -14.879096 -5.083179 -8.544922 12.763672 9.718954 51.063168 8.107644 2.471410 -46.943359 17.109375 -21.572268 2.000000 -2.000000 0.000000 -78.164063 -10.488282 12.314454 -46.727058 -2.261503 -1.927768 9.370455 52.371094 12.206616 -2.000000 2.000000 0.000000 77.089844 -4.951172 8.797986 53.537922 1.595076 -2.074859 -30.235834 -63.042892 15.905909 -48.936623 8.788277 -6.348984 44.668522 -3.635331 -3.706535 0.152604 9.564756 -7.893811 8.818293 -3.818424 -27.850821 -5.434835 5.296093 -0.280203 8.916652 -3.644678 2.139783 
84.691879 52.987011 63.889690 0.527344 -5.273429 61.786255 44.811584 -15.373769 -5.188534 -8.769532 12.451172 9.726563 51.063168 8.107644 2.471410 -46.132813 15.976563 -21.247314 2.000000 -2.000000 0.000000 -77.187500 -12.402344 14.150390 -46.375210 -2.270683 -1.917453 13.872787 52.746960 17.638632 -2.000000 2.000000 0.000000 76.699219 -5.585938 8.251003 53.526562 1.425362 -2.016280 -28.590673 -62.570244 13.986553 -47.348244 9.335033 -6.656626 43.616577 -3.833451 -3.697207 -0.308535 9.514777 -8.705544 8.372093 -4.168188 -27.685207 -4.403386 5.286126 -0.055505 15.279107 -4.551770 -0.127941 
85.582108 53.285679 64.108971 0.166016 -5.458982 61.991268 45.358253 -15.554545 -5.209749 -9.121093 12.480470 9.826328 51.063168 8.107644 2.471410 -45.361328 14.658202 -21.132814 2.000000 -2.000000 0.000000 -76.181641 -13.925781 16.025391 -46.371254 -2.379698 -1.774176 17.254135 52.586746 21.528051 -2.000000 2.000000 0.000000 75.800781 -4.677734 7.137876 53.702343 1.425362 -2.016280 -28.479691 -62.909409 14.109597 -45.382172 9.315272 -6.345607 42.226879 -3.931428 -3.620275 -1.193563 9.278445 -8.696193 6.717969 -4.726478 -27.009008 -3.530943 5.202785 -0.114910 23.665195 -6.193064 -2.927828 
86.479271 53.648449 64.363907 -0.205078 -5.458984 62.236328 46.000435 -15.553619 -4.823428 -9.492188 12.353516 9.873049 51.063168 8.107644 2.471410 -44.775394 13.359373 -21.269531 2.000000 -2.000000 0.000000 -74.091797 -15.273440 18.122431 -47.068188 -2.083744 -1.899050 16.604706 51.783958 20.799934 -2.000000 2.000000 0.000000 74.277344 -2.539063 5.624568 53.890450 1.655844 -2.110439 -28.528364 -63.742912 14.765404 -43.221565 9.451388 -5.919766 40.797779 -4.019521 -3.524595 -2.052060 8.470139 -8.899986 3.012117 -6.878117 -26.488445 3.307851 5.178147 0.259694 34.972279 -6.485538 -5.032523 
87.384171 54.441879 64.629944 -0.722656 -5.644531 62.636723 46.469265 -15.479876 -4.573937 -9.843750 12.392580 9.972798 51.063168 8.107644 2.471410 -44.169926 12.255858 -21.748049 2.000000 -2.000000 0.000000 -71.806641 -16.220703 19.860552 -48.125454 -2.236239 -1.998078 15.453040 50.514393 19.327841 -2.000000 2.000000 0.000000 73.652344 -1.435547 3.593750 53.879814 1.536582 -2.078262 -29.718287 -64.583099 15.446874 -41.220982 9.402608 -5.249892 39.372948 -3.794740 -3.342426 -3.165803 7.868660 -8.482584 -1.934641 -10.221888 -27.549545 13.340685 5.021367 1.130578 35.924183 -9.660366 -2.928071 
88.352142 55.611832 64.896095 -1.064453 -5.644531 62.840836 46.914593 -15.287971 -4.193868 -10.205078 12.421876 10.246240 51.063168 8.107644 2.471410 -43.730473 11.318358 -22.099609 2.000000 -2.000000 0.000000 -69.335938 -17.802734 21.676702 -49.004398 -2.099184 -1.996292 13.173149 49.494240 16.448685 -2.000000 2.000000 0.000000 74.658203 -1.591797 0.263672 53.702343 1.425362 -2.016280 -28.131384 -65.444084 12.870594 -38.687851 9.725831 -4.691618 37.637856 -3.907642 -3.193939 -3.763016 7.093734 -8.208401 -7.929921 -14.475589 -29.081678 26.029833 4.588235 2.179750 30.814941 -15.359613 4.092067 
89.362938 56.824249 65.157257 -1.611328 -5.644531 63.241226 47.195755 -15.004940 -3.941370 -10.576172 12.451172 10.341797 51.063168 8.107644 2.471410 -43.710941 11.494141 -22.431643 2.000000 -2.000000 0.000000 -66.826172 -19.853514 22.841795 -49.346581 -2.041258 -2.009448 10.439384 49.061005 12.842407 -2.000000 2.000000 0.000000 76.894531 -1.865234 -4.111329 53.363232 1.734405 -2.115649 -29.082197 -66.198463 11.971686 -36.166847 9.695988 -4.178942 35.503410 -4.038622 -3.074111 -4.192571 6.484792 -8.375297 -13.662053 -17.908648 -28.460382 37.284546 4.004009 2.672117 26.973694 -19.580305 10.670632 
90.437134 57.784809 65.415199 -1.943359 -5.644532 63.446304 47.282452 -14.844897 -3.531773 -10.927735 12.490234 10.429687 51.063168 8.107644 2.471410 -43.740234 12.910157 -22.595472 2.000000 -2.000000 0.000000 -64.150383 -22.255861 23.414272 -49.533531 -2.249969 -2.065727 6.447717 48.500492 7.827655 -2.000000 2.000000 0.000000 78.710938 -2.060547 -7.705078 53.361862 1.604257 -2.064547 -27.768038 -66.833450 9.387846 -33.509270 9.705414 -4.189056 33.223831 -4.155649 -3.071831 -4.736857 6.661634 -8.389762 -18.270733 -19.137960 -26.383671 46.063118 3.437417 3.690353 26.433798 -20.805017 13.042995 
